<svg xmlns="http://www.w3.org/2000/svg" viewBox="0 0 512 512">
  <path fill="#FFDC00" d="M481.2 334.2L298.1 151.1c11.3-12.3 9.5-31.5-4.1-41.7c-5.5-4.1-12-6.3-18.7-6.3c-10.2 0-19.9 5-25.7 13.8c-40.5 61.2-49.9 143.7-59.4 183.8c-49.5 0-120.4-45.1-181.6-59.5C.3 239.7-3.5 249.9 3.4 261.7c9.1 15.6 28 20.1 43.7 10.5L91.7 247 143 298.3l-36 29.5c-9.5 7.8-15 19.2-15 31.2c0 22.1 17.9 40 40 40c12.3 0 23.5-5.6 30.9-15.4l25.7-34l49.6 49.6c24.4 24.4 64.2 24.2 88.7-.3l160-160c24.7-24.7 25.3-65 .3-89L455 109.9c-8.5-8.5-20.3-11.9-31.8-11.1s-21.8 6.2-29.3 13.7l-37.5 37.5c-5.8 5.8-12.9 10.2-20.7 12.8l-40.5 13.5c-9.5 3.2-18.7 7.2-27.6 12L288.7 167c33.5 34.6 31.3 40.2 63.4 71.2l110.9-110.9c3.8-3.8 9-6 14.5-6c5.4 0 10.7 2.2 14.5 6c8 8 8 21 0 29L428 219.1c-5.3-3.5-10.9-5.1-16.5-5.1c-8.2 0-16.7 3.8-22.3 9.4L336 276.6c-11.6 11.6-27 18-43.4 18h-16v-16c0-15.9 6-31.5 18.2-43.5l44-42.8c1-1 2.1-1.9 3.2-2.7c24.6-16 53-27.4 82.5-34.5l-71-71c-8.8-8.8-8.8-23.2 0-32s23.2-8.8 32 0L398 64c13 13 34.1 13.1 47.2 0c13-13 13-34.1 0-47L409 .3C403.7-1.5 399.3 1 397.5 6.2c-1.6 4.8-4 9.3-7 13.1c-3 3.7-8.9 1.6-18.6-10.2L350.5-11.6C308.6-53.5 239-25.1 211 28l-7.5 14.3L187.3 33C157 4 103.5 4 73 33c-30.1 30.1-30 79.1 .3 109.4l7.5 7.5L67.1 161C34 194.1 34 247.6 67.1 280.7l2.1 2.1L59 293.5c-8.7 8.7-8.7 22.8 0 31.5s22.8 8.7 31.5 0l10.6-10.6 2.1 2.1c33 33 86.5 33.1 119.7 0l11.5-11.5L245 315.1c30.2 30.2 79.2 30.3 109.4 .3c29-30.2 29.1-83.1 .7-113.8l-8.5-8.5 16 8.9c54.5 30.3 83.6-35.5 31.1-66.3L382.7 127c14.3-4.1 30.4-1.5 42.3 10.3L439 151c34.8 35.4 34.6 91.9-.4 126.9l-126.1 125.3 53 53c28.5 28.5 74.8 28.5 103.4 0l2.8-2.8c28.5-28.5 28.5-74.8 0-103.3l-61.1-61c-1.6-1.6-1.7-4.1-.5-5.9c1.4-2 4.6-2.5 6.5-.5l59.1 59.1c17.4 17.4 17.4 45.7 0 63.1l-3.5 3.5c-17.6 17.6-46.3 17.4-63.7-.5l-1.8-1.9c16.6-24.5 15-57.9-4.9-81.1L282 208c-5.8-5.8-5.8-15.2 0-21L293.1 176c5.9-5.9 15.4-5.8 21.1 .2l20.5 20.5c19.4 19.4 51.3 22.3 74.1 5.8l-12.3 12.3c-24.1 24.1-24 63 .2 87s63 24.1 87 0c27.5-27.5 27.4-72.4-.3-99.8Z"/>
</svg>